<svg width="55" height="68" viewBox="0 0 55 68" fill="none" xmlns="http://www.w3.org/2000/svg">
<path d="M14.8527 0.0257601C17.4423 -0.207877 20.8533 1.20321 23.3744 2.0158L33.504 5.28788L44.5829 8.88784C46.6692 9.56443 48.7426 10.2386 50.8439 10.9637C54.5246 12.2339 56.2102 15.9151 54.0326 19.307C53.2327 20.5532 51.7875 21.6628 50.6572 22.6635L45.2179 27.4974C44.4813 28.1542 42.8904 29.5176 42.2697 30.2132L42.2056 30.2862C43.0205 30.6534 44.7512 31.0874 45.701 31.4206C48.808 32.5101 52.815 34.3259 54.3052 37.4295C54.6881 38.2192 54.8693 39.0913 54.8325 39.9682C54.7944 40.9494 54.5123 42.259 54.3133 43.2388L53.4712 47.3807C53.0004 49.8261 52.505 52.2668 51.9851 54.7026C51.7807 55.6763 51.4291 57.6202 51.111 58.4814C49.9411 61.6552 47.6367 63.3157 44.7198 64.7063C37.0866 68.1983 26.3427 68.3536 18.2145 67.0175C12.6724 66.1058 4.92648 63.7572 3.4931 57.5657C3.21102 56.3474 2.95177 55.091 2.69238 53.8618C2.17884 51.4321 1.67851 48.9996 1.19141 46.5645C0.896382 45.0975 -0.00825565 41.0387 5.691e-05 39.7488C0.0119807 38.7275 0.300534 37.7286 0.835128 36.8585C3.46251 32.5326 10.109 31.1801 14.6317 30.0545C14.3676 28.3443 13.7306 25.7429 13.3526 23.9844L10.8559 12.3432C10.4765 10.5589 10.03 8.72084 9.74484 6.92205C9.17073 3.30009 11.2393 0.537119 14.8527 0.0257601Z" fill="black"/>
<path d="M15.5922 5.11987C16.6807 5.04049 17.8754 5.55696 18.9267 5.88885L25.5546 8.00801L40.3646 12.7916C42.891 13.6088 45.4175 14.4297 47.942 15.2514C49.1207 15.6347 49.9997 16.331 48.8454 17.4524C48.1382 18.1397 47.3962 18.7765 46.6562 19.4271L42.624 22.9774C41.4779 24.0017 39.7377 25.8064 38.6544 26.649C37.0879 27.7072 35.9037 27.2663 34.1969 27.3276C32.6244 27.3767 31.0988 27.8714 29.7974 28.7551C27.1278 30.5893 26.997 32.3445 25.9308 35.0426C25.4732 36.201 23.8058 36.8373 22.6278 36.4905C21.3821 36.1246 21.0266 35.5148 20.8216 34.2543C20.3758 32.1482 19.9073 30.0388 19.4494 27.9402L16.6076 14.8308C16.051 12.2474 15.4922 9.66303 14.9785 7.07101C14.7983 6.16133 14.6918 5.63777 15.5922 5.11987Z" fill="#FEEA93"/>
<path d="M6.71079 46.6373C7.16983 46.7096 8.74267 47.3991 9.31808 47.6117C10.4155 48.0069 11.5317 48.3475 12.6624 48.6337C22.6325 51.2126 35.1419 50.9973 45.0121 47.8045C45.4618 47.6594 47.9828 46.6162 48.2206 46.7109C48.3167 47.4768 46.5247 55.8513 46.1697 56.8741C45.5074 58.4146 43.7305 59.6111 42.1885 60.2229C33.3493 63.5384 22.2059 63.488 13.2977 60.4573C11.4357 59.8237 8.56218 58.0303 8.38632 55.8902C8.27076 54.4832 6.37516 47.4529 6.71079 46.6373Z" fill="#EEE5CD"/>
<path d="M13.6742 34.6278C16.1414 34.3504 16.5797 36.894 15.0592 38.2492C12.2815 40.7239 16.0283 41.365 17.9442 41.7425C19.7235 39.1942 22.7323 38.6525 25.6187 39.4218C28.4374 40.1726 30.6981 43.3001 27.0535 44.9892C26.935 45.0253 26.8157 45.0593 26.6958 45.0907C25.7507 45.3353 24.0432 45.2808 22.9914 45.2052C18.5952 44.8897 13.4367 44.2315 9.54099 42.0402C8.72793 41.5728 7.59694 40.6237 7.44915 39.6514C6.99407 36.6582 11.5592 35.0679 13.6742 34.6278Z" fill="#FED74D"/>
<path d="M42.8611 35.7186C43.4 35.6736 43.8879 35.7458 44.3934 35.9434C45.594 36.4142 47.2626 37.5276 47.4268 38.9141C47.6817 41.0618 44.886 42.3959 43.244 43.0309C40.8463 43.9582 38.2544 44.4597 35.7136 44.8174C34.1513 45.0409 32.6925 44.9796 32.2693 43.1774C32.8737 40.8771 36.01 40.4349 38.0302 40.3164C39.1293 40.251 40.2317 40.4942 41.2932 40.7654C42.2492 40.1719 42.4188 39.8347 41.7865 38.7792C40.9056 37.3089 41.0595 36.1615 42.8611 35.7186Z" fill="#FED74D"/>
<path d="M33.2662 33.6212C34.896 33.5599 39.0305 34.7196 38.0173 36.9639C37.5192 38.0671 34.7325 38.5379 33.6566 38.7954C32.5494 39.0244 30.63 39.5265 29.6918 38.6925C27.8678 37.073 30.0965 34.1813 32.0404 33.8052C32.4997 33.7166 32.7818 33.6607 33.2662 33.6212Z" fill="#FED74D"/>
</svg>
